HIERARCHY
ROOT MidHip
{
    OFFSET 0.0 0.0 0.0
    CHANNELS 6 Xposition Yposition Zposition Zrotation Xrotation Yrotation
    JOINT Spine
    {
        OFFSET 0.0 0.0 15.146358983784626
        CHANNELS 3 Zrotation Xrotation Yrotation
        JOINT MidShoulder
        {
            OFFSET 0.0 0.0 15.146358983784626
            CHANNELS 3 Zrotation Xrotation Yrotation
            JOINT Nose
            {
                OFFSET 0.0 0.0 10.907029408603726
                CHANNELS 3 Zrotation Xrotation Yrotation
                End Site
                {
                    OFFSET 0.0 0.0 4.362811763441491
                }
            }
            JOINT RightShoulder
            {
                OFFSET -8.871374963415981 0.0 0.0
                CHANNELS 3 Zrotation Xrotation Yrotation
                JOINT RightElbow
                {
                    OFFSET -12.658462303709804 0.0 0.0
                    CHANNELS 3 Zrotation Xrotation Yrotation
                    JOINT RightWrist
                    {
                        OFFSET -10.763211527027494 0.0 0.0
                        CHANNELS 3 Zrotation Xrotation Yrotation
                        End Site
                        {
                            OFFSET -3.044295943242542 3.044295943242542 0.0
                        }
                        End Site
                        {
                            OFFSET -4.305284610810997 0.0 0.0
                        }
                        End Site
                        {
                            OFFSET -3.044295943242542 -3.044295943242542 0.0
                        }
                    }
                }
            }
            JOINT LeftShoulder
            {
                OFFSET 8.871374963415981 0.0 0.0
                CHANNELS 3 Zrotation Xrotation Yrotation
                JOINT LeftElbow
                {
                    OFFSET 12.658462303709804 0.0 0.0
                    CHANNELS 3 Zrotation Xrotation Yrotation
                    JOINT LeftWrist
                    {
                        OFFSET 10.763211527027494 0.0 0.0
                        CHANNELS 3 Zrotation Xrotation Yrotation
                        End Site
                        {
                            OFFSET 3.044295943242542 3.044295943242542 0.0
                        }
                        End Site
                        {
                            OFFSET 4.305284610810997 0.0 0.0
                        }
                        End Site
                        {
                            OFFSET 3.044295943242542 -3.044295943242542 0.0
                        }
                    }
                }
            }
        }
    }
    JOINT RightHip
    {
        OFFSET -5.740190996448556 0.0 0.0
        CHANNELS 3 Zrotation Xrotation Yrotation
        JOINT RightKnee
        {
            OFFSET 0.0 0.0 -19.560286755079552
            CHANNELS 3 Zrotation Xrotation Yrotation
            JOINT RightAnkle
            {
                OFFSET 0.0 0.0 -20.709620248238927
                CHANNELS 3 Zrotation Xrotation Yrotation
                End Site
                {
                    OFFSET 0.0 5.857565165331191 -5.857565165331191
                }
                End Site
                {
                    OFFSET 0.0 -5.857565165331191 -5.857565165331191
                }
            }
        }
    }
    JOINT LeftHip
    {
        OFFSET 5.740190996448556 0.0 0.0
        CHANNELS 3 Zrotation Xrotation Yrotation
        JOINT LeftKnee
        {
            OFFSET 0.0 0.0 -19.560286755079552
            CHANNELS 3 Zrotation Xrotation Yrotation
            JOINT LeftAnkle
            {
                OFFSET 0.0 0.0 -20.709620248238927
                CHANNELS 3 Zrotation Xrotation Yrotation
                End Site
                {
                    OFFSET 0.0 5.857565165331191 -5.857565165331191
                }
                End Site
                {
                    OFFSET 0.0 -5.857565165331191 -5.857565165331191
                }
            }
        }
    }
}
MOTION
Frames: 4
Frame Time: 0.03333333333333333
-4.021073874844977 41.39016929211231 -42.406210094060846 -3.2430708828407115 -64.70651877706057 3.536939318007917 -1.2681956067051292 -10.858698605136482 -11.068936206547926 -14.484590717974864 -6.408959238276832e-15 -8.14446840170567e-16 0.0 0.0 0.0 -91.72497201962355 -50.06837407472179 -93.28670824629769 121.94920959504886 -2.375168375244605e-15 -6.359424752789586e-16 31.378549309545875 -50.369773739077715 25.160489933165923 -97.46339060127754 -69.52489501764343 48.96952806718485 -38.469616915432404 9.77600868998068e-16 2.025403807102171e-15 -13.326686472613828 14.288986635890875 -176.6539851798901 -7.043648520001341 -46.74375713512911 3.8433861091986343 8.055903857202606 30.32658547081806 -12.909452304343933 -2.2069531490250793e-32 6.3611093629270335e-15 3.975693351829396e-16 -4.069429739886784 -31.59394525452597 -33.0931259663249 -11.699280264459558 23.1621697712256 16.09914486327713 2.2414367919785962e-32 6.46050169672277e-15 -3.975693351829397e-16
-3.0680629047173467 41.237733814978064 -42.67318014471482 0.9643717542878909 -64.98092842727935 7.7196553790967295 -0.9965634872835908 -10.606929110002856 -9.875608214444998 -18.21055727797158 3.3367570762891584e-15 5.347771965086124e-16 0.0 0.0 -1.5902773407317588e-15 -101.32112647506504 -45.42347245869438 -106.71128330337746 77.9346500033869 -1.3819539068186782e-15 -2.972940797647895e-15 35.96979163158831 37.053190477840815 -23.619638011454636 -112.89876629033071 -52.88838361435738 30.28752561212818 -31.153142514704538 -4.270307378050975e-16 1.5318703500670371e-15 -27.07320860899991 -8.268407147092686 175.79593474039524 -5.811423070346867 -47.47209621867182 6.412757961290274 9.144189379295913 31.98728177322604 -13.584095517125865 3.975693351829396e-16 -6.896728590703373e-34 -1.987846675914698e-16 -3.5095176465490066 -33.38947406524991 -32.25961560432906 -12.17073436439966 23.46875683784653 17.33180136766009 0.0 0.0 -7.951386703658792e-16
-2.327782687068715 40.98302623110926 -42.78976014899718 7.18048357970905 -65.40299291447191 13.430447986107657 -0.6877147327110973 -10.426958810054298 -7.4846516851390845 -18.37289752719967 -3.229288277189881e-15 -2.133185958638003e-15 1.5902773407317584e-15 0.0 0.0 -109.78352856373776 -51.723077954250854 -105.17924840084639 65.67053228227056 -1.0564760405975776e-15 -3.1035515079556806e-15 19.40712585465309 -20.334862441787834 6.979695471864736 -106.10227729801912 -59.573431479721435 39.164793349137234 -23.405429665604473 -6.36236888994205e-15 -4.565969349884614e-15 -30.94502388593518 -19.70846397489076 168.5694294406639 -3.963706577193114 -46.66294259550949 9.939474722400611 10.015715242602788 32.30133456600453 -13.878319845105235 0.0 0.0 1.987846675914698e-16 -2.6517207201165536 -35.34880515322659 -31.348350022397746 -13.468816381785922 24.78119759640724 19.275389554976332 0.0 0.0 7.951386703658792e-16
-1.4848084115479978 40.86608634937871 -43.276448684729196 14.099469049770693 -64.56478216499515 20.20951217715051 -0.40570323270063935 -10.33138340958109 -5.709258294083101 -13.11367508462966 -1.2111813982021276e-14 -2.992886911242432e-15 0.0 0.0 3.975693351829397e-16 -96.56565814454672 -49.74570028253128 -92.59017476454031 54.742599789551015 3.5305977554775114e-16 -1.8278449378428186e-16 17.72230338784024 -20.795912644146235 6.473103397572318 -75.7867705838865 -61.78291062838341 72.15733810423642 -31.528146784187655 -3.9250124247840854e-15 2.1968462915847226e-15 -33.64080294151786 51.084958235566596 -152.62700068758684 -2.3497849604248873 -46.54810622083938 13.514369067950264 11.06369550481774 32.52286933665281 -14.72260561850201 1.167859922099885e-15 -2.279153276459005e-33 -2.2363275104040355e-16 -1.7358412439349091 -37.94929857049055 -30.225714351260148 -13.925624421906955 24.90053494982067 20.18626441913461 0.0 0.0 0.0
